<?xml version="1.0" encoding="UTF-8" standalone="no"?>
<!-- Generator: Adobe Illustrator 16.0.4, SVG Export Plug-In . SVG Version: 6.00 Build 0)  -->

<svg
   xmlns:dc="http://purl.org/dc/elements/1.1/"
   xmlns:cc="http://creativecommons.org/ns#"
   xmlns:rdf="http://www.w3.org/1999/02/22-rdf-syntax-ns#"
   xmlns:svg="http://www.w3.org/2000/svg"
   xmlns="http://www.w3.org/2000/svg"
   xmlns:sodipodi="http://sodipodi.sourceforge.net/DTD/sodipodi-0.dtd"
   xmlns:inkscape="http://www.inkscape.org/namespaces/inkscape"
   version="1.1"
   id="Layer_1"
   x="0px"
   y="0px"
   width="19.286px"
   height="19.287px"
   viewBox="0 0 19.286 19.287"
   enable-background="new 0 0 19.286 19.287"
   xml:space="preserve"
   inkscape:version="0.48.4 r9939"
   sodipodi:docname="check-transmission-fluid.svg"><metadata
     id="metadata19"><rdf:RDF><cc:Work
         rdf:about=""><dc:format>image/svg+xml</dc:format><dc:type
           rdf:resource="http://purl.org/dc/dcmitype/StillImage" /></cc:Work></rdf:RDF></metadata><defs
     id="defs17" /><sodipodi:namedview
     pagecolor="#ffffff"
     bordercolor="#666666"
     borderopacity="1"
     objecttolerance="10"
     gridtolerance="10"
     guidetolerance="10"
     inkscape:pageopacity="0"
     inkscape:pageshadow="2"
     inkscape:window-width="1920"
     inkscape:window-height="1056"
     id="namedview15"
     showgrid="false"
     inkscape:zoom="12.236221"
     inkscape:cx="-4.7405263"
     inkscape:cy="9.6435003"
     inkscape:window-x="0"
     inkscape:window-y="24"
     inkscape:window-maximized="1"
     inkscape:current-layer="Layer_1" /><g
     id="g3"
     style="fill:#098ae4;fill-opacity:1"><path
       fill="#414043"
       d="M9.642,16.596c-1.856,0-3.603-0.723-4.915-2.036c-1.313-1.313-2.036-3.061-2.036-4.916   c0-1.857,0.723-3.603,2.036-4.916C6.04,3.415,7.786,2.691,9.642,2.691s3.603,0.724,4.917,2.036   c1.312,1.313,2.035,3.059,2.035,4.916c0,1.855-0.723,3.603-2.035,4.916C13.245,15.873,11.499,16.596,9.642,16.596z M9.642,3.354   c-3.468,0-6.289,2.821-6.289,6.289c0,3.467,2.821,6.289,6.289,6.289s6.29-2.822,6.29-6.289C15.932,6.176,13.11,3.354,9.642,3.354z"
       id="path5"
       style="fill:#098ae4;fill-opacity:1" /><path
       fill="#414043"
       d="M19.018,9.644c0-2.48-0.967-4.812-2.719-6.565l0,0l-0.545,0.544c1.543,1.542,2.498,3.672,2.498,6.021   s-0.955,4.478-2.498,6.019l0.545,0.545l0,0C18.051,14.454,19.018,12.124,19.018,9.644z"
       id="path7"
       style="fill:#098ae4;fill-opacity:1" /><path
       fill="#414043"
       d="M1.033,9.644c0-2.349,0.955-4.479,2.497-6.021L2.987,3.079l0,0C1.233,4.833,0.268,7.164,0.268,9.644   c0,2.48,0.965,4.81,2.719,6.564l0,0l0.543-0.545C1.988,14.122,1.033,11.993,1.033,9.644z"
       id="path9"
       style="fill:#098ae4;fill-opacity:1" /><g
       id="g11"
       style="fill:#098ae4;fill-opacity:1"><path
         fill="#414043"
         d="M10.267,7.111l-0.237,4.771H9.256L9.018,7.111V5.182h1.249V7.111z M10.267,14.105H9.018v-1.249h1.249    V14.105z"
         id="path13"
         style="fill:#098ae4;fill-opacity:1" /></g></g></svg>