<?xml version="1.0" encoding="UTF-8" standalone="no"?>
<!-- Generator: Adobe Illustrator 16.0.4, SVG Export Plug-In . SVG Version: 6.00 Build 0)  -->

<svg
   xmlns:dc="http://purl.org/dc/elements/1.1/"
   xmlns:cc="http://creativecommons.org/ns#"
   xmlns:rdf="http://www.w3.org/1999/02/22-rdf-syntax-ns#"
   xmlns:svg="http://www.w3.org/2000/svg"
   xmlns="http://www.w3.org/2000/svg"
   xmlns:sodipodi="http://sodipodi.sourceforge.net/DTD/sodipodi-0.dtd"
   xmlns:inkscape="http://www.inkscape.org/namespaces/inkscape"
   version="1.1"
   id="Layer_1"
   x="0px"
   y="0px"
   width="19.286px"
   height="19.287px"
   viewBox="0 0 19.286 19.287"
   enable-background="new 0 0 19.286 19.287"
   xml:space="preserve"
   inkscape:version="0.48.4 r9939"
   sodipodi:docname="how-to-check-tire-pressure.svg"><metadata
     id="metadata3015"><rdf:RDF><cc:Work
         rdf:about=""><dc:format>image/svg+xml</dc:format><dc:type
           rdf:resource="http://purl.org/dc/dcmitype/StillImage" /></cc:Work></rdf:RDF></metadata><defs
     id="defs3013" /><sodipodi:namedview
     pagecolor="#ffffff"
     bordercolor="#666666"
     borderopacity="1"
     objecttolerance="10"
     gridtolerance="10"
     guidetolerance="10"
     inkscape:pageopacity="0"
     inkscape:pageshadow="2"
     inkscape:window-width="1920"
     inkscape:window-height="1056"
     id="namedview3011"
     showgrid="false"
     inkscape:zoom="12.236221"
     inkscape:cx="-4.7405263"
     inkscape:cy="9.6435003"
     inkscape:window-x="0"
     inkscape:window-y="24"
     inkscape:window-maximized="1"
     inkscape:current-layer="Layer_1" /><g
     id="g2997"
     style="fill:#098ae4;fill-opacity:1"><g
       id="g2999"
       style="fill:#098ae4;fill-opacity:1"><g
         id="g3001"
         style="fill:#098ae4;fill-opacity:1"><g
           id="g3003"
           style="fill:#098ae4;fill-opacity:1"><path
             fill="#4C4C4C"
             d="M10.062,9.892c-0.02,0.17-0.192,0.294-0.39,0.292c-0.024,0-0.036,0-0.06,0      c-0.197,0.002-0.372-0.122-0.391-0.292c-0.25-2.301-0.499-4.602-0.75-6.901C8.625,2.653,9.201,2.655,9.55,2.632      c0.074,0,0.111,0,0.186,0c0.35,0.022,0.925,0.021,1.077,0.358C10.562,5.291,10.313,7.591,10.062,9.892z"
             id="path3005"
             style="fill:#098ae4;fill-opacity:1" /></g><circle
           fill="#4C4C4C"
           cx="9.643"
           cy="12.144"
           r="0.966"
           id="circle3007"
           style="fill:#098ae4;fill-opacity:1" /><path
           fill="#4C4C4C"
           d="M18.699,10.449c0.279-3.105-1.756-5.636-2.551-6.495V1.681H14.97v3.081l0.305,0.285     c0.023,0.022,2.51,2.41,2.254,5.229c-0.186,2.069-1.822,4.456-2.412,5.042H4.365c-0.59-0.586-2.394-2.973-2.58-5.042     C1.53,7.458,4.016,5.07,4.039,5.047l0.305-0.285V1.681H3.139v2.272c-0.796,0.859-2.832,3.39-2.552,6.495     c0.191,2.119,1.352,3.842,2.212,4.852c0.448,0.527,0.881,1.104,0.881,1.184v0.381c0,0.406,0.333,0.74,0.741,0.74h0.631     c0.407,0,0.741-0.334,0.741-0.74v-0.357h0.913v0.357c0,0.406,0.226,0.74,0.502,0.74c0.274,0,0.501-0.334,0.501-0.74v-0.357h0.627     v0.357c0,0.406,0.226,0.74,0.501,0.74s0.501-0.334,0.501-0.74v-0.357h0.985v0.357c0,0.406,0.226,0.74,0.502,0.74     s0.501-0.334,0.501-0.74v-0.357h0.717v0.357c0,0.406,0.225,0.74,0.502,0.74c0.275,0,0.5-0.334,0.5-0.74v-0.357h0.842v0.357     c0,0.406,0.334,0.74,0.742,0.74h0.631c0.406,0,0.74-0.334,0.74-0.74v-0.381c0-0.18,0.432-1.092,0.824-1.6     C17.625,13.849,18.531,12.3,18.699,10.449z"
           id="path3009"
           style="fill:#098ae4;fill-opacity:1" /></g></g></g></svg>