<?xml version="1.0" encoding="UTF-8" standalone="no"?>
<!-- Generator: Adobe Illustrator 16.0.4, SVG Export Plug-In . SVG Version: 6.00 Build 0)  -->

<svg
   xmlns:dc="http://purl.org/dc/elements/1.1/"
   xmlns:cc="http://creativecommons.org/ns#"
   xmlns:rdf="http://www.w3.org/1999/02/22-rdf-syntax-ns#"
   xmlns:svg="http://www.w3.org/2000/svg"
   xmlns="http://www.w3.org/2000/svg"
   xmlns:sodipodi="http://sodipodi.sourceforge.net/DTD/sodipodi-0.dtd"
   xmlns:inkscape="http://www.inkscape.org/namespaces/inkscape"
   version="1.1"
   id="Layer_1"
   x="0px"
   y="0px"
   width="19.286px"
   height="19.287px"
   viewBox="0 0 19.286 19.287"
   enable-background="new 0 0 19.286 19.287"
   xml:space="preserve"
   inkscape:version="0.48.4 r9939"
   sodipodi:docname="jumping-a-car.svg"><metadata
     id="metadata3028"><rdf:RDF><cc:Work
         rdf:about=""><dc:format>image/svg+xml</dc:format><dc:type
           rdf:resource="http://purl.org/dc/dcmitype/StillImage" /></cc:Work></rdf:RDF></metadata><defs
     id="defs3026" /><sodipodi:namedview
     pagecolor="#ffffff"
     bordercolor="#666666"
     borderopacity="1"
     objecttolerance="10"
     gridtolerance="10"
     guidetolerance="10"
     inkscape:pageopacity="0"
     inkscape:pageshadow="2"
     inkscape:window-width="1920"
     inkscape:window-height="1056"
     id="namedview3024"
     showgrid="false"
     inkscape:zoom="12.236221"
     inkscape:cx="-4.7405263"
     inkscape:cy="9.6435003"
     inkscape:window-x="0"
     inkscape:window-y="24"
     inkscape:window-maximized="1"
     inkscape:current-layer="Layer_1" /><path
     fill="#333333"
     d="M19.017,17.955H0.292V3.857H3.78V1.466H8.31v2.392h2.674V1.466h4.529v2.392h3.504V17.955z M1.042,17.205  h17.225V4.607h-3.504V2.216h-3.029v2.392H7.56V2.216H4.53v2.392H1.042V17.205z"
     id="path3018"
     style="fill:#098ae4;fill-opacity:1" /><polygon
     fill="#333333"
     points="7.9,9.355 6.108,9.355 6.095,7.549 5.345,7.554 5.358,9.355 3.541,9.355 3.541,10.105 5.363,10.105   5.376,11.914 6.126,11.909 6.113,10.105 7.9,10.105 "
     id="polygon3020"
     style="fill:#098ae4;fill-opacity:1" /><rect
     x="11.355"
     y="9.355"
     fill="#333333"
     width="4.359"
     height="0.75"
     id="rect3022"
     style="fill:#098ae4;fill-opacity:1" /></svg>