<?xml version="1.0" encoding="UTF-8" standalone="no"?>
<!-- Generator: Adobe Illustrator 16.0.4, SVG Export Plug-In . SVG Version: 6.00 Build 0)  -->

<svg
   xmlns:dc="http://purl.org/dc/elements/1.1/"
   xmlns:cc="http://creativecommons.org/ns#"
   xmlns:rdf="http://www.w3.org/1999/02/22-rdf-syntax-ns#"
   xmlns:svg="http://www.w3.org/2000/svg"
   xmlns="http://www.w3.org/2000/svg"
   xmlns:sodipodi="http://sodipodi.sourceforge.net/DTD/sodipodi-0.dtd"
   xmlns:inkscape="http://www.inkscape.org/namespaces/inkscape"
   version="1.1"
   id="Layer_1"
   x="0px"
   y="0px"
   width="19.286px"
   height="19.287px"
   viewBox="0 0 19.286 19.287"
   enable-background="new 0 0 19.286 19.287"
   xml:space="preserve"
   inkscape:version="0.48.4 r9939"
   sodipodi:docname="oil-change.svg"><metadata
     id="metadata3039"><rdf:RDF><cc:Work
         rdf:about=""><dc:format>image/svg+xml</dc:format><dc:type
           rdf:resource="http://purl.org/dc/dcmitype/StillImage" /></cc:Work></rdf:RDF></metadata><defs
     id="defs3037" /><sodipodi:namedview
     pagecolor="#ffffff"
     bordercolor="#666666"
     borderopacity="1"
     objecttolerance="10"
     gridtolerance="10"
     guidetolerance="10"
     inkscape:pageopacity="0"
     inkscape:pageshadow="2"
     inkscape:window-width="1920"
     inkscape:window-height="1056"
     id="namedview3035"
     showgrid="false"
     inkscape:zoom="12.236221"
     inkscape:cx="-4.7405263"
     inkscape:cy="9.6435003"
     inkscape:window-x="0"
     inkscape:window-y="24"
     inkscape:window-maximized="1"
     inkscape:current-layer="Layer_1" /><path
     fill="#333333"
     d="M12.67,17.529l-7.683-7.456c-0.029-0.031-0.038-0.041-2.384-3.12c0.25,1.054,0.495,2.079,0.536,2.225  c0.009,0.033,0.057,0.208,0.062,0.37c0.012,0.372-0.13,0.73-0.397,1.006c-0.279,0.288-0.669,0.454-1.068,0.454  c-0.801,0-1.453-0.643-1.453-1.433c0-0.065,0.019-0.199,0.019-0.199c0.055-0.289,0.726-4.831,0.726-4.831L1.988,3.62l4.997,3.257  l0.69-0.713l6.457-0.02l4.901,4.778L12.67,17.529z M1.879,4.765L2.13,5.094c0,0,3.347,4.393,3.413,4.479l7.109,6.893l5.326-5.529  l-4.15-4.042L7.994,6.913l-0.899,0.93L2.078,4.573L1.879,4.765z M1.584,5.903C1.389,7.221,1.086,9.255,1.041,9.5  c-0.009,0.451,0.307,0.758,0.694,0.758c0.197,0,0.391-0.083,0.53-0.226c0.125-0.129,0.191-0.293,0.186-0.461  C2.449,9.52,2.431,9.427,2.417,9.38C2.351,9.14,1.824,6.917,1.584,5.903"
     id="path3031"
     style="fill:#098ae4;fill-opacity:1" /><rect
     x="8.931"
     y="7.834"
     fill="#333333"
     width="4.091"
     height="0.729"
     id="rect3033"
     style="fill:#098ae4;fill-opacity:1" /></svg>