<?xml version="1.0" encoding="UTF-8" standalone="no"?>
<!-- Generator: Adobe Illustrator 16.0.4, SVG Export Plug-In . SVG Version: 6.00 Build 0)  -->

<svg
   xmlns:dc="http://purl.org/dc/elements/1.1/"
   xmlns:cc="http://creativecommons.org/ns#"
   xmlns:rdf="http://www.w3.org/1999/02/22-rdf-syntax-ns#"
   xmlns:svg="http://www.w3.org/2000/svg"
   xmlns="http://www.w3.org/2000/svg"
   xmlns:sodipodi="http://sodipodi.sourceforge.net/DTD/sodipodi-0.dtd"
   xmlns:inkscape="http://www.inkscape.org/namespaces/inkscape"
   version="1.1"
   id="Layer_1"
   x="0px"
   y="0px"
   width="19.286px"
   height="19.287px"
   viewBox="0 0 19.286 19.287"
   enable-background="new 0 0 19.286 19.287"
   xml:space="preserve"
   inkscape:version="0.48.4 r9939"
   sodipodi:docname="when-to-replace-tire.svg"><metadata
     id="metadata3062"><rdf:RDF><cc:Work
         rdf:about=""><dc:format>image/svg+xml</dc:format><dc:type
           rdf:resource="http://purl.org/dc/dcmitype/StillImage" /></cc:Work></rdf:RDF></metadata><defs
     id="defs3060" /><sodipodi:namedview
     pagecolor="#ffffff"
     bordercolor="#666666"
     borderopacity="1"
     objecttolerance="10"
     gridtolerance="10"
     guidetolerance="10"
     inkscape:pageopacity="0"
     inkscape:pageshadow="2"
     inkscape:window-width="1920"
     inkscape:window-height="1056"
     id="namedview3058"
     showgrid="false"
     inkscape:zoom="12.236221"
     inkscape:cx="-4.7405263"
     inkscape:cy="9.6435003"
     inkscape:window-x="0"
     inkscape:window-y="24"
     inkscape:window-maximized="1"
     inkscape:current-layer="Layer_1" /><path
     fill="#333333"
     d="M9.704,19.066c-5.151,0-9.341-4.189-9.341-9.342c0-5.15,4.19-9.34,9.341-9.34c5.151,0,9.343,4.19,9.343,9.34  C19.047,14.876,14.855,19.066,9.704,19.066 M9.704,1.127c-4.741,0-8.599,3.856-8.599,8.597c0,4.743,3.858,8.6,8.599,8.6  c4.743,0,8.601-3.857,8.601-8.6C18.305,4.983,14.447,1.127,9.704,1.127"
     id="path3042"
     style="fill:#098ae4;fill-opacity:1" /><path
     fill="#333333"
     d="M9.707,8.018H9.69C9.442,8.013,9.21,7.912,9.038,7.733c-0.171-0.18-0.263-0.414-0.257-0.66  c0.003-0.246,0.103-0.478,0.282-0.651C9.242,6.248,9.481,6.154,9.725,6.16c0.515,0.013,0.925,0.438,0.916,0.95  C10.625,7.615,10.208,8.018,9.707,8.018 M9.706,6.655c-0.11,0-0.216,0.043-0.298,0.122c-0.084,0.082-0.13,0.19-0.132,0.305  C9.273,7.198,9.315,7.306,9.396,7.39C9.476,7.473,9.583,7.521,9.7,7.523h0.007c0.236,0,0.432-0.189,0.439-0.425  c0.005-0.237-0.19-0.437-0.432-0.443H9.706z"
     id="path3044"
     style="fill:#098ae4;fill-opacity:1" /><path
     fill="#333333"
     d="M7.259,9.833c-0.1,0-0.201-0.017-0.301-0.051c-0.233-0.081-0.42-0.248-0.529-0.471  C6.321,9.087,6.307,8.834,6.388,8.599C6.562,8.11,7.08,7.861,7.566,8.028c0.235,0.08,0.425,0.248,0.533,0.473  c0.108,0.222,0.122,0.474,0.04,0.708C8.007,9.591,7.646,9.833,7.259,9.833 M7.261,8.471c-0.178,0-0.341,0.112-0.406,0.292  c-0.038,0.109-0.03,0.227,0.02,0.333c0.051,0.103,0.137,0.181,0.244,0.218C7.341,9.39,7.594,9.272,7.671,9.048l0.001-0.003  C7.711,8.936,7.704,8.82,7.654,8.716c-0.051-0.104-0.14-0.183-0.25-0.22C7.357,8.479,7.308,8.471,7.261,8.471"
     id="path3046"
     style="fill:#098ae4;fill-opacity:1" /><path
     fill="#333333"
     d="M8.171,12.767c-0.195,0-0.392-0.059-0.558-0.186c-0.202-0.154-0.33-0.377-0.361-0.625  c-0.032-0.244,0.032-0.484,0.182-0.678c0.31-0.404,0.893-0.486,1.3-0.18c0.407,0.307,0.489,0.891,0.183,1.303  C8.732,12.642,8.453,12.767,8.171,12.767 M8.175,11.406c-0.131,0-0.261,0.061-0.348,0.176c-0.069,0.09-0.099,0.199-0.084,0.312  c0.015,0.117,0.074,0.221,0.169,0.293c0.191,0.143,0.465,0.105,0.61-0.084c0.142-0.191,0.105-0.465-0.086-0.609l0,0  C8.357,11.435,8.265,11.406,8.175,11.406"
     id="path3048"
     style="fill:#098ae4;fill-opacity:1" /><path
     fill="#333333"
     d="M11.263,12.765c-0.295,0-0.585-0.139-0.765-0.396c-0.142-0.201-0.196-0.449-0.153-0.693  c0.043-0.246,0.18-0.461,0.382-0.602h0.001c0.423-0.287,1.005-0.186,1.298,0.232c0.289,0.422,0.186,1.002-0.233,1.297  C11.631,12.712,11.445,12.765,11.263,12.765 M11.01,11.48c-0.094,0.066-0.157,0.166-0.177,0.281  c-0.021,0.113,0.005,0.229,0.071,0.322c0.135,0.197,0.405,0.246,0.605,0.111c0.195-0.137,0.244-0.41,0.107-0.607  C11.482,11.394,11.209,11.343,11.01,11.48"
     id="path3050"
     style="fill:#098ae4;fill-opacity:1" /><path
     fill="#333333"
     d="M12.263,9.829c-0.401,0-0.772-0.259-0.896-0.661c-0.071-0.239-0.047-0.491,0.072-0.71  c0.117-0.219,0.313-0.378,0.551-0.448c0.236-0.074,0.487-0.046,0.707,0.07c0.22,0.118,0.381,0.314,0.451,0.552  c0.145,0.491-0.134,1.01-0.619,1.16C12.441,9.818,12.351,9.829,12.263,9.829 M12.26,8.466c-0.042,0-0.085,0.006-0.128,0.019  c-0.111,0.032-0.202,0.106-0.257,0.208s-0.067,0.22-0.033,0.331v0.001c0.07,0.232,0.309,0.362,0.543,0.292  c0.227-0.07,0.357-0.314,0.29-0.544c-0.033-0.11-0.108-0.201-0.21-0.256C12.4,8.483,12.33,8.466,12.26,8.466"
     id="path3052"
     style="fill:#098ae4;fill-opacity:1" /><path
     fill="#333333"
     d="M9.732,11.029c-0.01,0-0.02,0-0.03,0c-0.35-0.006-0.678-0.148-0.922-0.402  c-0.246-0.255-0.377-0.59-0.369-0.946c0.018-0.716,0.61-1.292,1.323-1.292h0.019c0.728,0.017,1.307,0.622,1.293,1.351  c-0.008,0.353-0.151,0.681-0.404,0.924C10.396,10.9,10.073,11.029,9.732,11.029 M9.732,8.884c-0.445,0-0.815,0.36-0.826,0.811  c-0.005,0.22,0.076,0.43,0.23,0.588c0.152,0.158,0.356,0.249,0.575,0.25h0.001c0.219-0.002,0.428-0.076,0.586-0.227  c0.159-0.152,0.249-0.357,0.253-0.576c0.009-0.456-0.353-0.835-0.807-0.846H9.732z"
     id="path3054"
     style="fill:#098ae4;fill-opacity:1" /><path
     fill="#333333"
     d="M9.71,14.613c-0.034,0-0.068,0-0.103-0.002l-0.066-0.004c-2.653-0.084-4.775-2.32-4.72-4.984  c0.025-1.308,0.558-2.523,1.5-3.422C7.26,5.297,8.505,4.808,9.856,4.839c2.666,0.086,4.787,2.32,4.733,4.982  c-0.026,1.303-0.559,2.52-1.501,3.426C12.171,14.13,10.975,14.613,9.71,14.613 M9.744,5.581c-1.117,0-2.123,0.399-2.909,1.156  C6.036,7.499,5.584,8.529,5.563,9.638c-0.046,2.26,1.753,4.156,4.01,4.229l0.05,0.002l0,0c1.109,0.041,2.152-0.387,2.951-1.156  c0.798-0.768,1.25-1.801,1.271-2.907c0.047-2.257-1.752-4.151-4.009-4.224C9.806,5.581,9.775,5.581,9.744,5.581"
     id="path3056"
     style="fill:#098ae4;fill-opacity:1" /></svg>