<?xml version="1.0" encoding="UTF-8" standalone="no"?>
<!-- Generator: Adobe Illustrator 16.0.4, SVG Export Plug-In . SVG Version: 6.00 Build 0)  -->

<svg
   xmlns:dc="http://purl.org/dc/elements/1.1/"
   xmlns:cc="http://creativecommons.org/ns#"
   xmlns:rdf="http://www.w3.org/1999/02/22-rdf-syntax-ns#"
   xmlns:svg="http://www.w3.org/2000/svg"
   xmlns="http://www.w3.org/2000/svg"
   xmlns:sodipodi="http://sodipodi.sourceforge.net/DTD/sodipodi-0.dtd"
   xmlns:inkscape="http://www.inkscape.org/namespaces/inkscape"
   version="1.1"
   id="Layer_1"
   x="0px"
   y="0px"
   width="19.286px"
   height="19.287px"
   viewBox="0 0 19.286 19.287"
   enable-background="new 0 0 19.286 19.287"
   xml:space="preserve"
   inkscape:version="0.48.4 r9939"
   sodipodi:docname="windshield-wiper-replacement.svg"><metadata
     id="metadata3071"><rdf:RDF><cc:Work
         rdf:about=""><dc:format>image/svg+xml</dc:format><dc:type
           rdf:resource="http://purl.org/dc/dcmitype/StillImage" /></cc:Work></rdf:RDF></metadata><defs
     id="defs3069" /><sodipodi:namedview
     pagecolor="#ffffff"
     bordercolor="#666666"
     borderopacity="1"
     objecttolerance="10"
     gridtolerance="10"
     guidetolerance="10"
     inkscape:pageopacity="0"
     inkscape:pageshadow="2"
     inkscape:window-width="1920"
     inkscape:window-height="1056"
     id="namedview3067"
     showgrid="false"
     inkscape:zoom="12.236221"
     inkscape:cx="-4.7405263"
     inkscape:cy="9.6435003"
     inkscape:window-x="0"
     inkscape:window-y="24"
     inkscape:window-maximized="1"
     inkscape:current-layer="Layer_1" /><path
     fill="#333333"
     d="M18.533,5.362c-0.287-0.184-0.559-0.349-0.832-0.5c-2.375-1.33-5.064-2.033-7.778-2.033  c-3.303,0-6.479,0.998-9.185,2.884c-0.205,0.143-0.266,0.42-0.138,0.635l4.916,8.258c0.073,0.121,0.196,0.205,0.338,0.226  c0.024,0.004,0.048,0.006,0.072,0.006c0.115,0,0.229-0.042,0.317-0.12c0.687-0.611,1.508-1.035,2.391-1.245l0.801,1.598  c-0.091,0.141-0.145,0.308-0.145,0.486c0,0.5,0.405,0.903,0.903,0.903c0.5,0,0.904-0.403,0.904-0.903  c0-0.49-0.391-0.888-0.877-0.903l-0.661-1.317c0.114-0.008,0.231-0.011,0.349-0.011c0.93,0,1.853,0.241,2.667,0.697  c0.251,0.139,0.494,0.303,0.722,0.482c0.11,0.088,0.251,0.122,0.39,0.094c0.137-0.026,0.255-0.112,0.323-0.234l4.683-8.367  C18.814,5.775,18.746,5.498,18.533,5.362z M6.054,13.643L1.651,6.247C2.496,5.693,3.387,5.23,4.311,4.861l3.886,7.738  C7.427,12.81,6.7,13.162,6.054,13.643z M13.438,13.43c-0.129-0.086-0.262-0.166-0.396-0.242c-0.957-0.536-2.04-0.819-3.133-0.819  c-0.272,0-0.542,0.018-0.808,0.052L5.15,4.552c1.527-0.507,3.133-0.77,4.772-0.77c2.55,0,5.078,0.661,7.312,1.91  c0.135,0.076,0.268,0.152,0.402,0.234L13.438,13.43z"
     id="path3065"
     style="fill:#098ae4;fill-opacity:1" /></svg>