<?xml version="1.0" encoding="utf-8"?>
<!-- Generator: Adobe Illustrator 16.0.0, SVG Export Plug-In . SVG Version: 6.00 Build 0)  -->
<!DOCTYPE svg PUBLIC "-//W3C//DTD SVG 1.1//EN" "http://www.w3.org/Graphics/SVG/1.1/DTD/svg11.dtd">
<svg version="1.1" id="Layer_1" xmlns="http://www.w3.org/2000/svg" xmlns:xlink="http://www.w3.org/1999/xlink" x="0px" y="0px"
	 width="96px" height="40px" viewBox="12 4 96 40" enable-background="new 12 4 96 40" xml:space="preserve">
<path d="M65.784,43.578c9.692-1.546,15.168-7.457,15.168-19.571c0-12.122-5.475-18.032-15.168-19.58C63.998,4.14,62.066,4,60,4
	c-2.065,0-3.997,0.14-5.784,0.428c-9.685,1.548-15.168,7.458-15.168,19.58c0,12.114,5.483,18.025,15.168,19.571
	C56,43.868,57.935,44,60,44C62.066,44,63.999,43.868,65.784,43.578z M65.784,5.947c6.849,1.479,12.457,6.155,12.457,18.059
	c0,9.047-3.24,13.915-7.808,16.38l-2.575-17.317l-2.073-5.84L61.59,5.415C63.012,5.485,64.426,5.653,65.784,5.947z M59.211,5.379
	C59.474,5.373,59.734,5.364,60,5.364c0.258,0,0.525,0.007,0.794,0.015l0.23,14.432h-1.023h-1.021L59.211,5.379z M41.759,24.006
	c0-11.904,5.609-16.581,12.458-18.059c1.357-0.294,2.773-0.461,4.195-0.532l-4.195,11.813l-2.072,5.84l-2.577,17.317
	C45.001,37.921,41.759,33.054,41.759,24.006z M54.217,42.059c-1.471-0.32-2.886-0.783-4.203-1.434l4.203-8.719l4.551-9.448h1.232
	h1.233l4.551,9.448l4.204,8.719c-1.318,0.65-2.732,1.113-4.204,1.434c-1.862,0.399-3.824,0.567-5.784,0.573
	C58.04,42.626,56.079,42.458,54.217,42.059z"/>
</svg>
