<?xml version="1.0" encoding="utf-8"?>
<!-- Generator: Adobe Illustrator 16.0.0, SVG Export Plug-In . SVG Version: 6.00 Build 0)  -->
<!DOCTYPE svg PUBLIC "-//W3C//DTD SVG 1.1//EN" "http://www.w3.org/Graphics/SVG/1.1/DTD/svg11.dtd">
<svg version="1.1" id="Layer_1" xmlns="http://www.w3.org/2000/svg" xmlns:xlink="http://www.w3.org/1999/xlink" x="0px" y="0px"
	 width="96px" height="40px" viewBox="12 4 96 40" enable-background="new 12 4 96 40" xml:space="preserve">
<g>
	<g>
		<g id="Audi">
			<path d="M91.218,7.218c-3.931,0-7.544,1.351-10.406,3.616c-2.861-2.266-6.474-3.616-10.407-3.616
				c-3.927,0-7.542,1.351-10.404,3.616c-2.861-2.266-6.473-3.616-10.404-3.616c-3.932,0-7.547,1.351-10.407,3.616
				c-2.862-2.266-6.474-3.616-10.404-3.616C19.513,7.218,12,14.731,12,24c0,9.269,7.512,16.782,16.783,16.782
				c3.932,0,7.543-1.353,10.404-3.615c2.861,2.263,6.475,3.615,10.406,3.615c3.933,0,7.544-1.35,10.405-3.615
				c2.863,2.263,6.477,3.615,10.406,3.615c3.932,0,7.545-1.35,10.406-3.615c2.862,2.263,6.474,3.615,10.407,3.615
				C100.488,40.782,108,33.27,108,24C108,14.731,100.488,7.218,91.218,7.218L91.218,7.218z M36.443,34.424
				c-2.14,1.562-4.811,2.516-7.66,2.516c-7.151,0-12.938-5.787-12.938-12.938s5.785-12.938,12.938-12.938
				c2.849,0,5.52,0.953,7.66,2.512c-2.277,2.866-3.631,6.482-3.631,10.426C32.812,27.929,34.182,31.565,36.443,34.424L36.443,34.424
				z M39.188,31.687c-1.593-2.152-2.531-4.806-2.531-7.686c0-2.886,0.935-5.536,2.531-7.688c1.597,2.152,2.534,4.802,2.534,7.688
				C41.721,26.881,40.78,29.536,39.188,31.687L39.188,31.687z M57.255,34.424c-2.146,1.582-4.8,2.513-7.67,2.513
				c-2.87,0-5.505-0.931-7.651-2.513c2.26-2.858,3.632-6.493,3.632-10.423c0-3.944-1.355-7.56-3.632-10.426
				c2.147-1.579,4.782-2.507,7.651-2.507c2.871,0,5.524,0.927,7.67,2.507c-2.276,2.867-3.631,6.482-3.631,10.426
				C53.624,27.929,54.995,31.565,57.255,34.424L57.255,34.424z M60,31.687c-1.592-2.152-2.532-4.806-2.532-7.686
				c0-2.886,0.936-5.536,2.532-7.688c1.595,2.152,2.532,4.802,2.532,7.688C62.533,26.881,61.593,29.536,60,31.687L60,31.687z
				 M78.066,34.424c-2.146,1.582-4.798,2.513-7.668,2.513c-2.873,0-5.506-0.931-7.652-2.513c2.261-2.858,3.629-6.493,3.629-10.423
				c0-3.944-1.354-7.56-3.629-10.426c2.146-1.579,4.779-2.507,7.652-2.507c2.869,0,5.522,0.927,7.668,2.507
				c-2.276,2.867-3.63,6.482-3.63,10.426C74.435,27.929,75.806,31.565,78.066,34.424L78.066,34.424z M80.812,31.687
				C79.22,29.534,78.28,26.881,78.28,24c0-2.886,0.937-5.536,2.531-7.688c1.597,2.152,2.532,4.802,2.532,7.688
				C83.344,26.881,82.405,29.536,80.812,31.687L80.812,31.687z M91.218,36.938c-2.851,0-5.521-0.954-7.659-2.515
				c2.261-2.859,3.63-6.494,3.63-10.424c0-3.944-1.355-7.56-3.63-10.427c2.141-1.56,4.809-2.512,7.659-2.512
				c7.151,0,12.938,5.788,12.938,12.939C104.156,31.151,98.369,36.938,91.218,36.938L91.218,36.938z"/>
		</g>
	</g>
</g>
</svg>
