<?xml version="1.0" encoding="utf-8"?>
<!-- Generator: Adobe Illustrator 16.0.0, SVG Export Plug-In . SVG Version: 6.00 Build 0)  -->
<!DOCTYPE svg PUBLIC "-//W3C//DTD SVG 1.1//EN" "http://www.w3.org/Graphics/SVG/1.1/DTD/svg11.dtd">
<svg version="1.1" id="Layer_1" xmlns="http://www.w3.org/2000/svg" xmlns:xlink="http://www.w3.org/1999/xlink" x="0px" y="0px"
	 width="96px" height="40px" viewBox="12 4 96 40" enable-background="new 12 4 96 40" xml:space="preserve">
<g>
	<g>
		<g id="Buick">
			<path d="M60.134,4L60.134,4L60.134,4c10.94,0.073,19.751,9.089,19.678,20.132c-0.073,11.045-9.005,19.939-19.946,19.867
				c-10.943-0.073-19.753-9.087-19.68-20.132C40.261,12.822,49.19,3.927,60.134,4L60.134,4z M59.878,42.109L59.878,42.109
				L59.878,42.109c9.907,0.065,17.995-7.99,18.061-17.989c0.067-10.004-7.912-18.165-17.818-18.232
				c-9.909-0.066-17.997,7.989-18.063,17.991C41.99,33.879,49.969,42.043,59.878,42.109L59.878,42.109z"/>
			<path d="M63.583,12.153L63.583,12.153l9.26,0.062l0,0c0,0-0.051,7.589-0.065,9.807c-0.033,4.981-2.074,7.69-4.71,11.879
				c-1.396-2.287-2.624-4.136-3.45-6.143c-0.677,3.193-2.357,5.545-4.389,8.773c-1.397-2.283-2.624-4.135-3.451-6.14
				c-0.677,3.19-2.355,5.544-4.39,8.774c-2.578-4.221-4.584-6.96-4.552-11.939c0.015-2.217,0.066-9.807,0.066-9.807l0,0l7.822,0.052
				l0,0c0.011-1.535,0.018-2.684,0.018-2.684l0,0l7.823,0.053l0,0C63.575,13.302,63.583,12.153,63.583,12.153L63.583,12.153z
				 M55.652,27.94L55.652,27.94L55.652,27.94c0.003-0.487,0.047-6.868,0.06-9.028l0,0l-6.381-0.043l0,0c0,0-0.051,7.704-0.06,9.028
				c-0.019,2.764,1.555,6.08,3.134,8.582C54.016,33.999,55.634,30.704,55.652,27.94L55.652,27.94z M63.495,25.307L63.495,25.307
				L63.495,25.307c0.003-0.485,0.045-6.868,0.059-9.028l0,0l-6.383-0.042l0,0c0,0-0.054,8.038-0.06,9.027
				c-0.018,2.763,1.554,6.082,3.133,8.584C61.855,31.367,63.477,28.069,63.495,25.307L63.495,25.307z M71.332,22.673L71.332,22.673
				L71.332,22.673c0.01-1.323,0.06-9.027,0.06-9.027l0,0l-6.38-0.042l0,0c0,0-0.055,8.038-0.061,9.027
				c-0.019,2.763,1.555,6.082,3.133,8.583C69.698,28.733,71.313,25.438,71.332,22.673L71.332,22.673z"/>
			<path d="M49.649,23.636l-0.027,4.108l0,0c-0.017,2.529,1.422,5.923,2.789,8.034c0.702-1.052,1.426-2.431,1.975-3.861l0,0
				L49.649,23.636L49.649,23.636L49.649,23.636z"/>
			<path d="M65.329,18.372l-0.028,4.106l0,0c-0.018,2.532,1.42,5.925,2.787,8.036c0.704-1.053,1.427-2.431,1.976-3.862l0,0
				L65.329,18.372L65.329,18.372L65.329,18.372z"/>
			<path d="M57.488,21.005L57.46,25.11l0,0c-0.017,2.53,1.42,5.924,2.79,8.036c0.701-1.053,1.426-2.432,1.974-3.862l0,0
				L57.488,21.005L57.488,21.005L57.488,21.005z"/>
			<path d="M55.182,29.083l-5.504-9.629l0.001-0.233l5.681,0.038l-0.057,8.523l0,0C55.301,28.197,55.257,28.634,55.182,29.083
				L55.182,29.083z"/>
			<path d="M70.863,23.819l-5.507-9.632l0.002-0.233l5.683,0.039l-0.057,8.522l0,0C70.981,22.931,70.938,23.369,70.863,23.819
				L70.863,23.819z"/>
			<path d="M63.023,26.452l-5.506-9.633l0.001-0.233l5.682,0.038l-0.057,8.523l0,0C63.141,25.563,63.096,26.002,63.023,26.452
				L63.023,26.452z"/>
		</g>
	</g>
</g>
</svg>
