<?xml version="1.0" encoding="utf-8"?>
<!-- Generator: Adobe Illustrator 16.0.0, SVG Export Plug-In . SVG Version: 6.00 Build 0)  -->
<!DOCTYPE svg PUBLIC "-//W3C//DTD SVG 1.1//EN" "http://www.w3.org/Graphics/SVG/1.1/DTD/svg11.dtd">
<svg version="1.1" id="Layer_1" xmlns="http://www.w3.org/2000/svg" xmlns:xlink="http://www.w3.org/1999/xlink" x="0px" y="0px"
	 width="120px" height="48px" viewBox="0 0 120 48" enable-background="new 0 0 120 48" xml:space="preserve">
<g>
	<path d="M77.004,20.267c0.024,0,0.045-0.02,0.045-0.045V18.07c0-0.025-0.021-0.045-0.045-0.045H60.692
		c-0.024,0-0.045,0.02-0.045,0.045v2.151c0,0.025,0.021,0.045,0.045,0.045H77.004z"/>
	<path d="M103.638,29.47l-10.03-0.013c-0.001,0-0.001,0.001-0.001,0.001l-32.914-0.045h-0.045v2.935l32.279,0.045h0.031v-0.001
		l10.378,0.013c0.023,0,0.042-0.018,0.045-0.04l0.302-2.845c0.001-0.013-0.003-0.025-0.012-0.035
		C103.663,29.475,103.65,29.47,103.638,29.47z M103.296,32.314l-10.305-0.013c0.027-0.078,0.055-0.164,0.081-0.251
		c0.004-0.011,0.007-0.02,0.01-0.03c0.249-0.812,0.468-1.944,0.563-2.474l9.942,0.013L103.296,32.314z"/>
	<path d="M102.276,33.876h-9.438h-0.001H60.78h-0.09h-0.043v0.043c0,0.001-0.002,0.001-0.002,0.002v7.987
		c0,0.002,0.002,0.003,0.002,0.004v0.06h0.001v1.967c0,0.014,0.006,0.026,0.017,0.034c0.008,0.007,0.018,0.011,0.028,0.011
		c0.003,0,0.006,0,0.008-0.001c0.307-0.056,30.709-5.656,34.377-6.652c0.931-0.25,2.001-0.541,2.934-0.829
		c0.002,0,0.005,0,0.008-0.001c1.869-0.584,3.684-1.298,4.297-2.56c0.007-0.014,0.006-0.03-0.002-0.043
		C102.307,33.884,102.292,33.876,102.276,33.876z M85.331,37.617h-0.307v0.063c-0.608,0.127-1.187,0.24-1.693,0.339
		c-0.323,0.062-0.622,0.121-0.892,0.176c-3.062,0.553-7.123,1.246-10.913,1.882c-3.017,0.502-6.008,0.994-8.083,1.335h-0.758v0.124
		c-0.99,0.162-1.671,0.273-1.905,0.312c-0.001-0.967,0.002-2.056,0.004-3.14c0.005-1.845,0.009-3.587-0.004-4.742H92.77
		c-0.227,0.678-0.782,1.272-1.706,1.815c0,0-0.001,0-0.002,0c-0.378,0.223-0.837,0.435-1.344,0.641
		C88.369,36.919,86.774,37.311,85.331,37.617z M92.712,34.318c-0.133,0.378-0.44,0.723-0.868,1.037
		C92.243,35.032,92.524,34.688,92.712,34.318z M91.798,35.392c-0.052,0.037-0.104,0.075-0.16,0.111
		C91.689,35.466,91.75,35.43,91.798,35.392z M95.055,37.244c-3.593,0.975-32.871,6.374-34.316,6.641v-1.932
		c0.002,0,0.005,0,0.007-0.001l0.019-0.004c0.57-0.093,5.33-0.869,10.675-1.766c1.591-0.265,3.189-0.532,4.668-0.782h0.957v-0.162
		c2.489-0.424,4.515-0.777,5.362-0.949c2.246-0.405,3.963-0.735,4.636-0.911c0.958-0.251,1.772-0.512,2.478-0.785
		c0.612-0.216,1.174-0.454,1.659-0.716c1.737,0.127,4.728,0.361,6.588,0.599C96.905,36.743,95.92,37.011,95.055,37.244z
		 M98.011,36.408c-1.781-0.238-4.827-0.479-6.654-0.613c0.897-0.512,1.479-1.115,1.52-1.829h9.327
		C101.576,35.152,99.822,35.842,98.011,36.408z"/>
	<path d="M59.231,28.299c0.025,0,0.045-0.021,0.045-0.045v-2.415c0-0.024-0.02-0.045-0.045-0.045H42.79
		c-0.025,0-0.045,0.021-0.045,0.045v2.415c0,0.024,0.02,0.045,0.045,0.045H59.231z"/>
	<path d="M96.497,11.455c0.001,0,0.001-0.001,0.002-0.001c0,0,0,0.001,0.001,0.001h10.816c0.016,0,0.029-0.008,0.038-0.021
		l1.524-2.354c0.005-0.007,0.007-0.016,0.007-0.024c0-0.047,0-0.047-0.403-0.064c-0.205-0.009-0.527-0.02-0.896-0.02
		c-0.414,0-0.801,0.013-1.146,0.039h-8.28c-0.001,0-0.001,0.001-0.002,0.001c0,0,0-0.001-0.001-0.001H78.704
		c-0.024,0-0.045,0.02-0.045,0.045v2.354c0,0.025,0.021,0.045,0.045,0.045H96.497z M106.444,9.102
		c0.347-0.026,0.73-0.039,1.143-0.039c0.549,0,1.001,0.023,1.175,0.034l-1.47,2.269H96.596c0.033-0.04,0.065-0.085,0.099-0.127
		c0.108-0.135,0.216-0.272,0.321-0.414c0.043-0.057,0.082-0.111,0.124-0.168c0.102-0.14,0.2-0.278,0.294-0.414
		c0.05-0.072,0.097-0.14,0.145-0.209c0.074-0.11,0.145-0.215,0.21-0.315c0.153-0.232,0.294-0.449,0.398-0.616H106.444z"/>
	<path d="M60.647,27.881c0,0.025,0.021,0.045,0.045,0.045h33.711h9.537c0.021,0,0.04-0.015,0.044-0.036l0.828-4.084
		c0.003-0.013-0.001-0.027-0.009-0.037c-0.009-0.011-0.021-0.017-0.035-0.017h-9.703H60.692c-0.012,0-0.023,0.005-0.032,0.014
		c-0.009,0.008-0.013,0.02-0.013,0.032c0.013,0.52,0.008,1.31,0.003,2.146C60.646,26.623,60.642,27.325,60.647,27.881z
		 M103.903,27.836h-9.447l0.647-3.994h9.61L103.903,27.836z M60.738,23.842h34.274l-0.647,3.994H60.737
		c-0.006-0.548-0.001-1.23,0.003-1.891C60.745,25.132,60.75,24.363,60.738,23.842z"/>
	<path d="M95.218,22.1h9.83c0.022,0,0.041-0.016,0.045-0.038l1.089-7.197c0.002-0.013-0.002-0.026-0.011-0.036
		c-0.009-0.01-0.021-0.016-0.034-0.016l-9.604,0.06l-17.829,0.115c-0.025,0-0.045,0.02-0.045,0.045v7.022
		c0,0.025,0.021,0.045,0.045,0.045H95.218z M105.009,22.01h-9.737l1.299-7.048l9.514-0.059L105.009,22.01z M78.749,15.077
		l17.73-0.115l-1.299,7.047H78.749V15.077z"/>
	<path d="M77.004,13.984c0.024,0,0.045-0.02,0.045-0.045V7.387c0-0.025-0.021-0.045-0.045-0.045H60.692
		c-0.024,0-0.045,0.02-0.045,0.045v6.553c0,0.025,0.021,0.045,0.045,0.045H77.004z"/>
	<path d="M20.338,7.258c-0.017,0-0.033,0.01-0.041,0.025s-0.005,0.034,0.005,0.047l3.491,4.404c0.008,0.011,0.021,0.017,0.035,0.017
		h35.453c0.025,0,0.045-0.02,0.045-0.045V7.303c0-0.025-0.02-0.045-0.045-0.045H20.338z M59.237,11.662H23.851l-3.42-4.314h38.806
		V11.662z"/>
	<path d="M59.251,41.958c0.002,0.001,0.005,0.001,0.008,0.001c0.01,0,0.021-0.004,0.029-0.011c0.01-0.008,0.016-0.021,0.016-0.034
		V31.468c0-0.024-0.02-0.045-0.045-0.045H42.767c-0.025,0-0.045,0.021-0.045,0.045v7.47c0,0.021,0.016,0.04,0.037,0.044
		L59.251,41.958z"/>
	<path d="M119.578,1.581c-0.001-0.002,0-0.006-0.001-0.008c-0.003-0.006-0.012-0.001-0.017-0.005
		c-0.008-0.007-0.012-0.019-0.023-0.019H59.915H0.463c-0.018,0-0.033,0.01-0.041,0.025C0.415,1.589,0.417,1.608,0.428,1.621
		c0,0,0.021,0.026,0.057,0.071c0,0,0,0,0,0.001c0.058,0.08,0.163,0.221,0.306,0.415c0.101,0.136,0.23,0.311,0.367,0.496l-0.003,0
		l0.8,1.083c1.803,2.441,4.818,6.526,6.668,9.055c0.091,0.525,3.221,18.466,3.689,20.982c0.257,1.364,2.034,2.572,5.77,3.917v0.001
		c6.897,2.479,20.567,5.356,41.789,8.791v0.002l0.039,0.005c0.013,0.001,0.025,0.004,0.036,0.006l0.015,0.002l0,0
		c0.012,0.002,0.023,0.004,0.035,0.005h0.006l0.006-0.001c21.315-3.444,35.034-6.33,41.942-8.82c0.002,0,0.005-0.001,0.007-0.001
		c3.708-1.341,5.477-2.545,5.734-3.906c0.47-2.518,3.6-20.457,3.691-20.982c2.044-2.792,5.521-7.503,7.192-9.768
		c0.69-0.935,0.911-1.234,0.979-1.338l0.004-0.002c0.019-0.009,0.029-0.03,0.024-0.05C119.581,1.582,119.578,1.582,119.578,1.581z
		 M18.772,35.451c-0.141-0.074-0.274-0.15-0.398-0.228c-0.011-0.007-0.021-0.014-0.032-0.021c-0.338-0.215-0.613-0.445-0.842-0.695
		c-0.039-0.042-0.08-0.083-0.116-0.127c-0.046-0.055-0.085-0.113-0.127-0.171c-0.042-0.058-0.083-0.116-0.122-0.176
		c-0.035-0.056-0.066-0.114-0.098-0.172c-0.02-0.037-0.039-0.076-0.058-0.114h10.384c0.025,0.044,0.057,0.092,0.086,0.138
		c0.022,0.035,0.041,0.067,0.064,0.104c0.058,0.087,0.122,0.177,0.192,0.269c0.025,0.033,0.057,0.068,0.084,0.103
		c0.048,0.06,0.094,0.119,0.148,0.18c0.044,0.051,0.096,0.102,0.144,0.152c0.043,0.046,0.084,0.091,0.131,0.137
		c0.056,0.056,0.119,0.11,0.181,0.166c0.047,0.042,0.092,0.085,0.142,0.127c0.065,0.055,0.137,0.109,0.207,0.163
		c0.056,0.043,0.109,0.087,0.168,0.129c0.07,0.051,0.146,0.1,0.221,0.149c0.07,0.047,0.139,0.093,0.213,0.138
		c0.071,0.044,0.147,0.085,0.223,0.128c0.062,0.034,0.119,0.07,0.184,0.104h-9.915c-0.385-0.15-0.726-0.304-1.028-0.461
		C18.797,35.466,18.785,35.458,18.772,35.451z M29.941,36.023h11.751c0.025,0,0.045-0.021,0.045-0.045v-2.275
		c0-0.024-0.02-0.045-0.045-0.045H27.391H16.935c-0.142-0.307-0.251-0.643-0.331-1.022c-0.107-0.705-0.23-1.501-0.36-2.33h9.704
		c0.001,0,0.002-0.002,0.004-0.002h15.74c0.025,0,0.045-0.021,0.045-0.045v-6.552c0-0.025-0.02-0.045-0.045-0.045H25.046h-0.001
		h-9.852c-0.085-0.532-0.17-1.061-0.254-1.584h9.797h0.001h34.545c0.025,0,0.045-0.02,0.045-0.045v-4.2
		c0-0.025-0.02-0.045-0.045-0.045h-35.18h-0.001H14.25c-0.081-0.501-0.157-0.979-0.229-1.426h10.141
		c0.014,0,0.027-0.006,0.036-0.018c0.005-0.007,0.004-0.017,0.004-0.026h0.397h0.576h34.209v-3.15H24.373h-0.114h-0.971
		l-0.004-0.013c-0.005-0.019-0.023-0.032-0.043-0.032h-9.737c-0.007-0.045-0.016-0.1-0.022-0.141c0-0.004-0.002-0.009-0.004-0.013
		c-0.197-0.414-0.417-0.818-0.646-1.218H23.61l-3.516-4.477l-0.013-0.017H9.534C8.334,5.912,7.324,4.986,7.033,4.727h52.882h52.976
		l-5.721,8.413c-0.004,0.006-0.007,0.012-0.008,0.019c-0.019,0.132-1.905,13.235-2.572,16.507c-0.617,3.031-1.36,5.826-3.649,6.713
		c-7.587,2.47-40.235,8.252-41.003,8.389c-0.007,0.001-0.026,0.004-0.028,0.004l-0.017,0.003c-0.093-0.028-0.317-0.076-0.875-0.195
		l-0.332-0.07c0,0,0,0,0,0c-16.771-3.533-28.238-5.907-32.286-6.685c-2.855-0.725-4.88-1.257-6.332-1.801H29.941z M15.207,23.752
		h9.799l0.89,6.464h-9.664c-0.123-0.783-0.239-1.52-0.353-2.235C15.663,26.608,15.435,25.176,15.207,23.752z M24.774,21.988
		c-0.248-1.237-0.512-3.248-0.621-4.11h35.084v4.11H24.774z M24.062,17.878c0.107,0.851,0.369,2.844,0.616,4.088
		c0.001,0.007,0.003,0.016,0.004,0.022h-9.757c-0.207-1.291-0.408-2.54-0.591-3.679c-0.024-0.148-0.046-0.288-0.069-0.432H24.062z
		 M24.101,16.272H14.006c-0.214-1.333-0.384-2.394-0.488-3.06h9.689L24.101,16.272z M12.003,10.416
		c-0.025-0.038-0.051-0.072-0.076-0.11c-0.221-0.325-0.446-0.64-0.675-0.946c-0.056-0.075-0.11-0.15-0.167-0.224
		c-0.214-0.282-0.43-0.555-0.645-0.817c-0.126-0.155-0.241-0.291-0.361-0.432C10,7.793,9.92,7.699,9.84,7.607
		c-0.072-0.083-0.154-0.183-0.222-0.26h10.419l3.387,4.314h-10.64c-0.015-0.026-0.032-0.049-0.047-0.074
		C12.503,11.188,12.259,10.796,12.003,10.416z M112.965,4.637H59.96V1.638h59.376L112.965,4.637z M59.87,1.638v2.999H6.929
		C6.718,4.499,3.64,2.515,0.589,1.638H59.87z M0.637,1.748c0.031,0.009,0.062,0.02,0.093,0.029c0.158,0.047,0.316,0.096,0.474,0.149
		c0.025,0.008,0.05,0.018,0.075,0.026C1.451,2.01,1.622,2.07,1.792,2.134C1.799,2.137,1.807,2.14,1.813,2.142
		c2.673,1.002,5.051,2.561,5.074,2.576c0.023,0.021,1.32,1.151,2.839,2.896c0.086,0.099,0.174,0.2,0.264,0.307
		c0.115,0.135,0.23,0.272,0.346,0.414c0.213,0.259,0.431,0.533,0.656,0.827c0.049,0.064,0.097,0.131,0.146,0.197
		c0.234,0.312,0.47,0.639,0.703,0.981c0.026,0.038,0.053,0.075,0.078,0.113c0.259,0.385,0.512,0.788,0.753,1.202
		c0.257,0.44,0.503,0.889,0.722,1.348c0.007,0.049,0.018,0.112,0.026,0.167c0,0.002-0.002,0.004-0.001,0.006
		c0.072,0.463,0.18,1.135,0.312,1.962l0.19,1.188c0,0.001,0.002,0.001,0.002,0.002c0.076,0.471,0.157,0.975,0.242,1.506
		c0,0.002-0.002,0.004-0.002,0.007c0.191,1.179,0.4,2.475,0.618,3.827l0.06,0.374c0,0,0,0,0,0c0.088,0.551,0.178,1.108,0.268,1.669
		c0,0.001-0.002,0.003-0.001,0.004c0.225,1.394,0.468,2.919,0.736,4.619c0.25,1.579,0.482,3.069,0.672,4.318
		c0.083,0.396,0.198,0.743,0.346,1.058c0.001,0.005-0.002,0.009,0,0.014c0.042,0.087,0.089,0.169,0.137,0.251
		c0.012,0.021,0.023,0.045,0.036,0.066c0.228,0.377,0.528,0.705,0.924,1.004c0.021,0.016,0.043,0.03,0.064,0.045
		c0.112,0.082,0.23,0.162,0.357,0.239c0.027,0.018,0.057,0.033,0.085,0.05c0.128,0.075,0.263,0.149,0.407,0.223
		c0.009,0.005,0.017,0.01,0.027,0.015c0.017,0.009,0.038,0.017,0.055,0.025c0.16,0.078,0.33,0.156,0.511,0.233
		c0.034,0.014,0.068,0.028,0.102,0.042c0.083,0.035,0.161,0.07,0.249,0.104c0.005,0.002,0.011,0.003,0.017,0.003h0.009
		c1.513,0.592,3.651,1.156,6.54,1.889c3.972,0.764,15.08,3.062,31.327,6.482c-0.035-0.005-0.07-0.01-0.106-0.015
		c-0.115-0.017-0.233-0.034-0.36-0.053c-0.044-0.007-0.091-0.015-0.137-0.021c-5.907-0.902-23.993-4.46-24.197-4.5
		c-0.057-0.012-5.76-1.156-10.554-2.452c-3.085-0.836-5.962-1.838-6.129-3.499c-0.111-1.13-3.39-20.688-3.423-20.885
		c-0.001-0.006-0.003-0.011-0.006-0.016c-0.024-0.039-2.428-3.918-5.087-6.857c-2.566-2.438-5.116-3.22-6.418-3.469
		C1.123,2.405,0.98,2.212,0.863,2.055C0.771,1.93,0.695,1.827,0.637,1.748z"/>
</g>
</svg>
