<?xml version="1.0" encoding="utf-8"?>
<!-- Generator: Adobe Illustrator 16.0.0, SVG Export Plug-In . SVG Version: 6.00 Build 0)  -->
<!DOCTYPE svg PUBLIC "-//W3C//DTD SVG 1.1//EN" "http://www.w3.org/Graphics/SVG/1.1/DTD/svg11.dtd">
<svg version="1.1" id="Layer_1" xmlns="http://www.w3.org/2000/svg" xmlns:xlink="http://www.w3.org/1999/xlink" x="0px" y="0px"
	 width="96px" height="40px" viewBox="12 4 96 40" enable-background="new 12 4 96 40" xml:space="preserve">
<g>
	<g>
		<g id="Chrysler">
			<path fill="#1C1B18" d="M95.615,24.435v-1.101h-8.973c0-0.409,0.145-0.683,0.328-0.801c0.225-0.148,0.565-0.235,1.421-0.229
				l7.223-0.006v-1.045h-8.649c-1.136,0-1.934,0.222-1.934,2.617c0,2.376,0.579,2.627,1.934,2.627h8.649v-1.089h-7.223
				c-0.62,0-1.083,0.051-1.427-0.133c-0.27-0.146-0.322-0.336-0.32-0.839H95.615L95.615,24.435z"/>
			<path fill="#1C1B18" d="M65.895,24.435h3.349c0.52-0.006,0.618,0.263,0.618,0.488c0,0.213-0.083,0.493-0.618,0.485h-8.005
				c-0.506,0-0.525,1.089,0,1.089c0,0,7.625,0,8.005,0c0.021,0,1.68,0,1.684-1.575c-0.004-1.586-1.684-1.586-1.684-1.586
				c-0.938,0-2.301,0-3.535,0l0,0h-3.35c-0.521,0.006-0.616-0.262-0.616-0.487c0-0.212,0.082-0.495,0.616-0.488h8.007
				c0.507,0,0.525-1.11,0.002-1.11c0,0-7.627,0-8.009,0c-0.021,0-1.678,0.022-1.681,1.598c0.003,1.586,1.681,1.586,1.681,1.586
				C63.298,24.435,64.66,24.435,65.895,24.435L65.895,24.435z"/>
			<path fill="#1C1B18" d="M83.054,26.501h-8.245c-1.569,0-2.137-0.452-2.121-1.676v-3.57l1.409-0.004v3.187
				c-0.076,0.721,0.265,1.018,1.033,0.971h7.924C83.352,25.408,83.334,26.501,83.054,26.501z"/>
			<path fill="#1C1B18" d="M97.378,21.251c0,0,6.371,0,8.328,0c2.972-0.021,3.047,3.346,0.276,3.37
				c-0.047,0-0.161,0.025-0.214,0.018l0.03,0.309c0.519,0.334,1.265,0.851,1.915,0.942c0.26,0.006,0.277,0.586,0.116,0.586h-0.869
				l-3.812-1.834h-4.764v1.834h-1.011L97.378,21.251L97.378,21.251z M98.382,22.277v1.32c0,0,5.259,0,6.859,0
				c1.929,0,1.882-1.319-0.03-1.319C103.594,22.278,98.382,22.277,98.382,22.277z"/>
			<path fill="#1C1B18" d="M53.06,26.26v-1.843c-1.893-0.084-4.529-0.682-4.727-3.166h1.354c0.141,1.721,1.995,2.018,3.937,2.03
				c0.466,0.001,3.718,0.073,3.938-2.03h1.354c-0.198,2.483-2.864,3.085-4.756,3.169v1.844C54.158,26.567,53.06,26.578,53.06,26.26z
				"/>
			<polygon fill="#1C1B18" points="33.015,21.251 34.188,21.251 34.188,26.496 33.015,26.496 33.015,24.397 25.424,24.397 
				25.424,26.496 24.25,26.496 24.25,21.251 25.424,21.251 25.424,23.351 33.015,23.351 			"/>
			<path fill="#1C1B18" d="M35.952,21.251c0,0,6.371,0,8.33,0c2.969-0.021,3.044,3.346,0.274,3.37c-0.046,0-0.16,0.025-0.214,0.018
				l0.03,0.309c0.518,0.334,1.267,0.851,1.916,0.942c0.259,0.006,0.277,0.586,0.115,0.586h-0.868l-3.812-1.834h-4.761v1.834h-1.014
				L35.952,21.251L35.952,21.251z M36.955,22.277v1.32c0,0,5.259,0,6.861,0c1.928,0,1.881-1.319-0.031-1.319
				C42.168,22.278,36.955,22.277,36.955,22.277z"/>
			<path fill="#1C1B18" d="M13.231,24.002L13.231,24.002c-0.052-0.894,1.973-1.688,4.066-1.663c3.229-0.025,4.579,1.03,4.633,1.072
				c0.154,0.1,0.688-0.872,0.528-0.963c-1.792-0.975-3.338-1.199-5.163-1.199c-3.071,0-5.245,1.046-5.296,2.751l0-0.024
				c0.098,2.44,3.614,2.775,5.295,2.775c1.825,0,3.37-0.222,5.163-1.199c0.139-0.095-0.268-1.067-0.528-0.963
				c-0.044,0.011-1.404,1.098-4.633,1.073C15.204,25.689,13.179,24.896,13.231,24.002z"/>
		</g>
	</g>
</g>
</svg>
