<?xml version="1.0" encoding="utf-8"?>
<!-- Generator: Adobe Illustrator 16.0.0, SVG Export Plug-In . SVG Version: 6.00 Build 0)  -->
<!DOCTYPE svg PUBLIC "-//W3C//DTD SVG 1.1//EN" "http://www.w3.org/Graphics/SVG/1.1/DTD/svg11.dtd">
<svg version="1.1" id="Layer_1" xmlns="http://www.w3.org/2000/svg" xmlns:xlink="http://www.w3.org/1999/xlink" x="0px" y="0px"
	 width="96px" height="40px" viewBox="12 4 96 40" enable-background="new 12 4 96 40" xml:space="preserve">
<g>
	<g>
		<g id="Dodge">
			<g>
				<polygon points="95.111,19.234 83.995,32.135 89.41,32.135 100.527,19.234 				"/>
				<polygon points="102.698,19.234 91.581,32.135 96.998,32.135 108,19.366 108,19.234 				"/>
			</g>
			<g>
				<path d="M12.353,27.511c-0.195,0-0.353-0.161-0.353-0.361v-4.428c0-0.2,0.158-0.361,0.353-0.361l9.406,0.001
					c1.263,0,2.449,0.3,3.339,0.801c0.857,0.485,1.33,1.116,1.33,1.78c0,0.66-0.473,1.292-1.33,1.776
					c-0.891,0.503-2.09,0.793-3.354,0.793L12.353,27.511L12.353,27.511L12.353,27.511z M15.594,23.347
					c-0.209,0-0.378,0.177-0.378,0.395v2.389c0,0.217,0.17,0.395,0.378,0.395l4.82,0.001c1.452,0,2.591-0.702,2.591-1.588
					c0-0.884-1.138-1.593-2.591-1.593L15.594,23.347z"/>
				<path d="M46.566,27.511c-0.194,0-0.353-0.161-0.353-0.361v-4.428c0-0.2,0.159-0.361,0.353-0.361l9.405,0.022
					c1.265,0,2.45,0.278,3.339,0.779c0.858,0.485,1.331,1.116,1.331,1.78c0,0.66-0.472,1.292-1.331,1.776
					c-0.89,0.503-2.076,0.78-3.338,0.78L46.566,27.511z M49.807,23.347c-0.208,0-0.377,0.177-0.377,0.395v2.388
					c0,0.218,0.169,0.396,0.377,0.396l4.821-0.008c1.452,0,2.591-0.694,2.591-1.58c0-0.884-1.138-1.578-2.591-1.578L49.807,23.347z"
					/>
				<path d="M36.321,27.667c-0.766,0-1.316-0.016-1.848-0.035l-0.035-0.001c-1.617-0.052-3.109-0.354-4.203-0.851
					c-1.087-0.492-1.686-1.142-1.686-1.825c0-1.405,2.587-2.582,5.889-2.677c0.62-0.018,1.275-0.037,1.883-0.037
					c0.607,0,1.262,0.018,1.882,0.037c3.302,0.096,5.887,1.271,5.887,2.677c0,0.684-0.599,1.333-1.685,1.825
					c-1.093,0.497-2.586,0.799-4.202,0.851l-0.038,0.001C37.634,27.649,37.085,27.667,36.321,27.667 M36.321,23.226
					c-0.338,0-0.695,0.012-1.031,0.02c-1.97,0.06-3.399,0.778-3.399,1.709c0,0.924,1.43,1.642,3.399,1.709h0.008h0.009
					c0.305,0.012,0.596,0.02,1.013,0.02c0.417,0,0.708-0.009,1.013-0.02h0.006h0.014c1.967-0.066,3.394-0.785,3.394-1.709
					c0-0.931-1.429-1.649-3.396-1.709C37.014,23.234,36.659,23.226,36.321,23.226"/>
				<path d="M68.131,27.521h-0.152c-3.513-0.017-5.371-0.908-5.371-2.579c0-1.353,2.36-2.486,5.375-2.579
					c0.189-0.007,0.398-0.01,0.656-0.01c0.18,0,0.358,0.001,0.537,0.003h0.056c0.159,0.001,0.315,0.003,0.472,0.003l7.609,0.002
					c0.07,0,0.199,0.021,0.199,0.189v0.611c0,0.184-0.151,0.184-0.199,0.184l-7.545-0.001c-0.289,0-0.589,0.009-0.895,0.019
					c-0.695,0.026-2.965,0.243-2.965,1.578c0,0.942,1.219,1.514,2.965,1.583l0.01,0.001c0.268,0.012,0.521,0.021,0.885,0.021h4.105
					c0.215,0,0.389-0.051,0.389-0.277v-0.591c0-0.226-0.175-0.304-0.389-0.304l-4.141,0.001c-0.072,0-0.174-0.048-0.174-0.178
					v-0.522c0-0.084,0.063-0.188,0.196-0.188l7.404,0.001c0.196,0,0.356,0.16,0.356,0.358v2.31c0,0.197-0.159,0.358-0.356,0.358
					l-7.457-0.001c-0.091,0-0.256,0.001-0.454,0.002h-0.137C68.777,27.521,68.39,27.521,68.131,27.521"/>
				<path d="M80.284,27.51c-0.19,0-0.349-0.156-0.349-0.348V22.71c0-0.192,0.156-0.349,0.349-0.349h12.752
					c0.161,0,0.203,0.17,0.203,0.203v0.572c0,0.181-0.171,0.203-0.203,0.203l-9.331,0.007c-0.267,0-0.486,0.146-0.486,0.414V24.1
					c0,0.271,0.22,0.389,0.486,0.389l8.859,0.005c0.18,0,0.204,0.171,0.204,0.203v0.474c0,0.189-0.172,0.204-0.204,0.204h-8.876
					c-0.269,0-0.488,0.146-0.488,0.417v0.353c0,0.267,0.22,0.383,0.488,0.383l9.517-0.004c0.199,0,0.205,0.171,0.205,0.202v0.582
					c0,0.032-0.018,0.203-0.205,0.203H80.284z"/>
			</g>
		</g>
	</g>
</g>
</svg>
