<?xml version="1.0" encoding="utf-8"?>
<!-- Generator: Adobe Illustrator 16.0.0, SVG Export Plug-In . SVG Version: 6.00 Build 0)  -->
<!DOCTYPE svg PUBLIC "-//W3C//DTD SVG 1.1//EN" "http://www.w3.org/Graphics/SVG/1.1/DTD/svg11.dtd">
<svg version="1.1" id="Layer_1" xmlns="http://www.w3.org/2000/svg" xmlns:xlink="http://www.w3.org/1999/xlink" x="0px" y="0px"
	 width="96px" height="40px" viewBox="12 4 96 40" enable-background="new 12 4 96 40" xml:space="preserve">
<g>
	<g>
		<g id="FIAT">
			<g>
				<path d="M60,44c-11.028,0-20-8.972-20-19.999C40,12.972,48.972,4,60,4c11.027,0,20,8.972,20,20.001C80,35.028,71.027,44,60,44z
					 M60,4.107c-10.969,0-19.893,8.924-19.893,19.894c0,10.969,8.924,19.893,19.893,19.893c10.97,0,19.894-8.924,19.894-19.893
					C79.894,13.031,70.97,4.107,60,4.107z"/>
			</g>
			<g>
				<path d="M58.798,38.45c-0.015,0-2.113-0.105-3.944-0.524c-1.591-0.363-3.001-1.057-3.013-1.063l-0.006-0.003l-0.007-0.004
					c-0.008-0.002-0.792-0.347-1.274-0.814c-0.488-0.475-0.712-1.095-0.714-1.102c-0.011-0.026-0.867-2.343-1.516-4.817
					c-0.595-2.275-1.004-4.793-1.009-4.818c-0.007-0.033-0.501-2.576-0.639-5.281c-0.118-2.272,0.115-4.854,0.118-4.879
					c0-0.02,0.121-1.548,0.726-2.547c0.543-0.899,1.592-1.34,1.603-1.345l0.008-0.002l0.009-0.004
					c0.013-0.008,1.231-0.626,3.542-1.136c1.842-0.408,4.405-0.698,6.526-0.74c2.426-0.048,5.029,0.123,6.963,0.459l0,0
					c2.322,0.401,3.828,1,3.844,1.006l0.014,0.006l0.014,0.002c0.016,0.005,1.519,0.423,2.31,1.44
					c0.802,1.035,0.933,2.734,0.935,2.752v0.01c0.003,0.018,0.17,1.483,0.17,3.279c0,0.321-0.005,0.654-0.018,0.991
					c-0.091,2.393-0.504,5.043-0.507,5.07c-0.004,0.025-0.562,3.138-1.2,5.763c-0.472,1.943-1.087,3.664-1.092,3.681l-0.007,0.014
					l-0.002,0.012c-0.003,0.01-0.21,0.882-0.551,1.491c-0.299,0.532-0.733,0.844-0.738,0.845l-0.007,0.006l-0.007,0.005
					c-0.004,0.002-0.302,0.246-0.758,0.5c-0.526,0.29-1.229,0.604-1.262,0.615c-0.048,0.021-1.6,0.622-3.645,0.896
					C61.53,38.497,58.826,38.45,58.798,38.45z M50.393,15.842l0.428,15.581l1.908,0.04v-7.13h1.596v-1.791h-1.596V17.79h2.143
					v-1.947L50.393,15.842L50.393,15.842z M56.004,31.347h1.985L57.874,15.92h-2.027L56.004,31.347z M59.338,31.269h1.865
					l0.011-7.008h2.476l0.233,7.008h1.468c0,0,0.242-5.486-0.234-9.651c-0.385-3.355-1.497-5.747-1.497-5.747h-4.493L59.338,31.269z
					 M61.12,22.534v-4.875h1.12c0,0,0.497,0.676,0.776,1.696c0.381,1.39,0.579,3.239,0.579,3.239L61.12,22.534z M65.373,17.537
					h1.707l-0.277,13.907h2.05l0.274-13.937h1.59v-1.498H65.4L65.373,17.537z"/>
			</g>
		</g>
	</g>
</g>
</svg>
