<?xml version="1.0" encoding="utf-8"?>
<!-- Generator: Adobe Illustrator 16.0.0, SVG Export Plug-In . SVG Version: 6.00 Build 0)  -->
<!DOCTYPE svg PUBLIC "-//W3C//DTD SVG 1.1//EN" "http://www.w3.org/Graphics/SVG/1.1/DTD/svg11.dtd">
<svg version="1.1" id="Layer_1" xmlns="http://www.w3.org/2000/svg" xmlns:xlink="http://www.w3.org/1999/xlink" x="0px" y="0px"
	 width="96px" height="40px" viewBox="12 4 96 40" enable-background="new 12 4 96 40" xml:space="preserve">
<g>
	<g>
		<path d="M80.048,28.023c0.021,0.088,0.127,0.171,0.246,0.214c0.034,0.013,0.06,0.041,0.013,0.13
			c-0.319,0.682-0.607,1.073-1.01,1.661c-0.365,0.544-0.781,0.969-1.278,1.377c-0.755,0.622-1.809,1.295-2.67,0.836
			c-0.378-0.197-0.539-0.735-0.538-1.171c0.025-1.222,0.573-2.475,1.582-3.707c1.231-1.504,2.579-2.282,3.479-1.851
			c0.903,0.441,0.621,1.501,0.202,2.335C80.036,27.914,80.035,27.971,80.048,28.023z"/>
		<path d="M54.834,19.792c0.037,0.171,0.104,0.203,0.176,0.19c0.378-0.077,0.792-0.388,1.04-0.75c0.226-0.328,0.333-0.8,0.109-0.99
			c-0.2-0.172-0.52-0.127-0.754,0.089C54.922,18.748,54.776,19.348,54.834,19.792"/>
		<path d="M60.061,5.582C86.58,5.662,108.029,13.917,108,24.051c-0.03,10.129-21.527,18.261-48.048,18.182
			C33.426,42.153,11.97,33.897,12,23.766C12.03,13.631,33.536,5.504,60.061,5.582 M59.943,40.641
			c25.413,0.075,46.03-7.351,46.058-16.589c0.026-9.241-20.547-16.79-45.959-16.866C34.64,7.11,14.021,14.537,13.993,23.777
			C13.966,33.014,34.541,40.565,59.943,40.641 M104.387,24.046c-0.025,8.438-19.923,15.219-44.44,15.146
			C35.43,39.118,15.583,32.22,15.609,23.782c0.025-8.44,19.913-15.221,44.43-15.148C84.556,8.705,104.412,15.604,104.387,24.046z
			 M89.791,18.328c-0.77-0.002-1.772-0.005-2.575-0.009c-0.188,0-0.294,0.022-0.378,0.2c-0.297,0.564-3.913,5.945-4.592,6.988
			c-0.104,0.159-0.246,0.137-0.259-0.044c-0.067-0.623-0.596-1.336-1.444-1.684c-0.649-0.261-1.273-0.312-1.938-0.228
			c-1.18,0.154-2.232,0.777-3.167,1.479c-1.396,1.059-2.603,2.431-4.167,3.442c-0.849,0.551-2.01,1.03-2.786,0.308
			c-0.706-0.657-0.617-2.106,0.46-3.227c0.109-0.115,0.249-0.016,0.223,0.09c-0.096,0.509,0.022,1.012,0.409,1.367
			c0.475,0.423,1.147,0.473,1.713,0.192c0.684-0.335,1.091-0.985,1.212-1.723c0.18-1.143-0.702-2.156-1.799-2.236
			c-0.897-0.067-1.762,0.243-2.591,0.931c-0.425,0.348-0.662,0.604-1.027,1.116c-0.094,0.127-0.226,0.141-0.226-0.048
			c0.052-1.467-0.545-2.294-1.767-2.322c-0.941-0.024-1.947,0.481-2.728,1.105c-0.865,0.684-1.623,1.598-2.43,2.451
			c-0.093,0.107-0.187,0.102-0.208-0.105c-0.023-0.972-0.267-1.914-0.715-2.579c-0.152-0.236-0.494-0.352-0.766-0.193
			c-0.146,0.068-0.592,0.276-0.924,0.542c-0.153,0.132-0.227,0.326-0.154,0.578c0.433,1.449,0.331,3.097-0.261,4.494
			c-0.546,1.271-1.601,2.42-2.831,2.804c-0.815,0.256-1.665,0.124-2.182-0.593c-0.716-0.998-0.417-2.727,0.649-4.161
			c0.948-1.263,2.319-2.062,3.689-2.577c0.156-0.059,0.19-0.161,0.146-0.3c-0.072-0.226-0.189-0.529-0.235-0.67
			c-0.127-0.334-0.471-0.389-0.895-0.342c-0.992,0.112-1.889,0.447-2.777,0.919c-2.316,1.23-3.481,3.621-3.988,4.905
			c-0.252,0.615-0.453,0.999-0.736,1.339c-0.356,0.458-0.817,0.872-1.657,1.604c-0.073,0.067-0.131,0.206-0.074,0.337
			c0.084,0.179,0.517,0.794,0.648,0.849c0.128,0.067,0.295-0.026,0.354-0.067c0.593-0.396,1.29-1.022,1.634-1.453
			c0.117-0.145,0.249-0.08,0.308,0.138c0.316,1.144,1.149,2.078,2.305,2.472c2.124,0.723,4.319-0.306,5.991-2.104
			c1.053-1.14,1.434-1.877,1.848-2.377c0.687-0.845,2.04-2.741,3.658-3.957c0.593-0.443,1.288-0.783,1.634-0.559
			c0.278,0.185,0.375,0.611-0.076,1.433c-1.649,2.988-4.082,6.502-4.521,7.354c-0.083,0.151-0.014,0.269,0.141,0.269
			c0.862-0.004,1.713,0,2.491,0.001c0.13-0.005,0.189-0.061,0.251-0.152c1.269-1.971,2.45-3.843,3.732-5.779
			c0.073-0.111,0.144-0.024,0.143,0.027c0.021,0.448,0.126,1.065,0.396,1.468c0.48,0.752,1.152,1.074,1.909,1.084
			c0.601,0.007,0.909-0.083,1.561-0.32c0.521-0.196,0.946-0.452,1.276-0.683c0.188-0.13,0.223,0.089,0.21,0.122
			c-0.284,1.566,0.063,3.42,1.618,4.191c1.859,0.925,3.907-0.359,5.079-1.521c0.12-0.108,0.248-0.099,0.258,0.146
			c0.022,0.444,0.223,0.969,0.588,1.341c0.988,0.994,2.974,0.606,4.972-0.932c1.29-0.987,2.637-2.38,3.849-3.858
			c0.049-0.059,0.081-0.15,0-0.243c-0.188-0.193-0.462-0.417-0.635-0.588c-0.085-0.069-0.214-0.048-0.272,0.006
			c-1.257,1.176-2.37,2.517-3.989,3.628c-0.557,0.381-1.421,0.683-1.806,0.154c-0.154-0.201-0.141-0.487,0.015-0.859
			c0.476-1.176,7.968-12.507,8.361-13.178 M35.774,34.358c2.219-0.013,4.312-0.677,6.822-3.218c2.345-2.363,4.489-5.907,6.497-9.194
			c0.056-0.103,0.105-0.157,0.413-0.196c1.251-0.151,3.092-0.323,4.287-0.39c0.259-0.014,0.305-0.012,0.412,0.121
			c0.304,0.391,0.778,0.72,1.143,0.925c0.188,0.097,0.268,0.146,0.414,0.148c0.175,0.007,0.306-0.089,0.401-0.187
			c0.119-0.14,0.155-0.318,0.094-0.433c-0.067-0.122-0.896-0.584-0.929-0.77c-0.013-0.116,0.119-0.143,0.119-0.143
			c0.6-0.19,1.229-0.579,1.619-1.309c0.381-0.724,0.441-1.685-0.239-2.225c-0.602-0.472-1.52-0.399-2.245,0.252
			c-0.72,0.631-0.96,1.553-0.867,2.364c0.022,0.141,0.009,0.188-0.178,0.202c-1.097,0.084-2.151,0.109-3.319,0.168
			c-0.081,0.006-0.105-0.044-0.058-0.097c1.353-2.343,3.376-4.009,5.612-5.649c0.141-0.113,0.106-0.321,0.095-0.497
			c4.022,0.886,7.915,2.527,12.093,2.505c1.734-0.01,3.387-0.268,4.959-1.129c1.406-0.755,1.962-1.453,2.014-2.181
			c0.026-0.507-0.318-0.827-0.823-0.718c-4.218,0.956-8.243,0.932-12.442,0.414c-5.489-0.683-10.712-2.168-16.227-1.727
			c-4.591,0.37-8.968,2.938-8.979,6.857c-0.019,1.987,1.395,3.6,3.589,3.537c2.563-0.081,4.682-2.131,5.798-4.728
			c0.427-0.985-0.347-1.398-0.727-0.831c-0.654,1.02-1.587,1.811-2.605,2.302c-1.204,0.586-2.504,0.422-2.891-0.562
			c-0.549-1.385,0.612-3.459,3.225-4.425c3.783-1.388,7.732-0.451,11.529,0.276c0.061,0,0.261,0.113,0.082,0.207
			c-0.685,0.366-1.358,0.667-2.398,1.565c-0.747,0.638-1.742,1.488-2.498,2.416c-0.76,0.916-1.293,1.732-2.005,2.635
			c-0.094,0.131-0.213,0.125-0.213,0.125c-1.723,0.289-3.411,0.477-4.949,1.543c-0.32,0.219-0.464,0.609-0.274,0.909
			c0.177,0.266,0.577,0.295,0.849,0.092c0.958-0.711,1.95-1.046,3.083-1.074c0.048,0.002,0.073,0.012,0.083,0.04
			c0.012,0.018,0,0.056-0.01,0.081c-1.707,2.35-2.136,2.877-3.413,4.332c-0.651,0.744-1.303,1.378-2.012,2.031
			c-2.915,2.686-6.017,2.628-7.134,0.937c-0.657-1.014-0.572-2.075-0.132-2.954c0.548-1.077,1.633-1.864,2.532-2.325
			c0.344-0.169,0.439-0.599,0.108-0.991c-0.225-0.258-0.73-0.302-1.121-0.235c-1.191,0.216-2.588,1.109-3.417,2.187
			c-0.938,1.208-1.414,2.675-1.266,4.325C30.552,32.643,33,34.369,35.774,34.358"/>
	</g>
</g>
</svg>
