<?xml version="1.0" encoding="utf-8"?>
<!-- Generator: Adobe Illustrator 16.0.0, SVG Export Plug-In . SVG Version: 6.00 Build 0)  -->
<!DOCTYPE svg PUBLIC "-//W3C//DTD SVG 1.1//EN" "http://www.w3.org/Graphics/SVG/1.1/DTD/svg11.dtd">
<svg version="1.1" id="Layer_1" xmlns="http://www.w3.org/2000/svg" xmlns:xlink="http://www.w3.org/1999/xlink" x="0px" y="0px"
	 width="96px" height="40px" viewBox="12 4 96 40" enable-background="new 12 4 96 40" xml:space="preserve">
<g id="GMC">
	<g>
		<path d="M12,19.337c0,2.298,0,5.83,0,9.375c0,3.532,2.112,5.649,5.789,5.649h18.142c3.801,0,6.212-1.93,6.212-5.469v-7.405H27.292
			v4.609h9.761v1.883c0,1.221-0.673,1.557-1.559,1.557h-16.67c-1.216,0-1.6-0.629-1.6-1.611v-8.038c0-1.068,0.598-1.422,1.25-1.422
			h23.669v-4.83H17.741C13.988,13.638,12,15.935,12,19.337z"/>
		<polygon points="63.748,34.364 72.085,18.644 72.085,34.364 77.324,34.364 77.324,13.638 69.273,13.638 61.332,28.525 
			53.38,13.638 45.348,13.638 45.348,34.364 50.573,34.364 50.573,18.644 58.917,34.364 		"/>
		<path d="M108,34.364v-5.213H87.175c-1.212,0-1.599-0.626-1.599-1.603v-7.277c0-1.06,0.592-1.43,1.254-1.43H108v-5.206H86.085
			c-3.751,0-5.729,2.298-5.729,5.7c0,2.298,0,5.829,0,9.374c0,3.534,2.103,5.65,5.779,5.65L108,34.364L108,34.364z"/>
	</g>
</g>
<line fill="none" x1="65.5" y1="-96" x2="65.5" y2="-94"/>
</svg>
